<svg width="37" height="29" viewBox="0 0 37 29" fill="none" xmlns="http://www.w3.org/2000/svg">
<path d="M5.5332 5.72803H1.52783V9.00342H6.18066V10H0.309082V0.757812H6.11719V1.76074H1.52783V4.73145H5.5332V5.72803ZM9.81787 5.63916L11.3413 3.13184H12.7124L10.4653 6.52783L12.7822 10H11.4238L9.83691 7.4292L8.25 10H6.88525L9.20215 6.52783L6.95508 3.13184H8.31348L9.81787 5.63916ZM19.7646 6.64209C19.7646 7.68734 19.5256 8.52946 19.0474 9.16846C18.5692 9.80745 17.9217 10.127 17.105 10.127C16.2713 10.127 15.6154 9.86247 15.1372 9.3335V12.6406H13.9629V3.13184H15.0356L15.0928 3.89355C15.571 3.30111 16.2354 3.00488 17.0859 3.00488C17.9111 3.00488 18.5628 3.31592 19.041 3.93799C19.5234 4.56006 19.7646 5.42546 19.7646 6.53418V6.64209ZM18.5903 6.50879C18.5903 5.73438 18.4253 5.12288 18.0952 4.67432C17.7651 4.22575 17.3123 4.00146 16.7368 4.00146C16.0259 4.00146 15.4927 4.31673 15.1372 4.94727V8.229C15.4884 8.85531 16.0259 9.16846 16.7495 9.16846C17.3123 9.16846 17.7588 8.94629 18.0889 8.50195C18.4232 8.05339 18.5903 7.389 18.5903 6.50879ZM20.9517 6.50244C20.9517 5.82959 21.0828 5.22445 21.3452 4.68701C21.6118 4.14958 21.98 3.73486 22.4497 3.44287C22.9237 3.15088 23.4632 3.00488 24.0684 3.00488C25.0036 3.00488 25.759 3.32861 26.3345 3.97607C26.9142 4.62354 27.2041 5.4847 27.2041 6.55957V6.64209C27.2041 7.31071 27.075 7.91162 26.8169 8.44482C26.563 8.9738 26.1969 9.38639 25.7188 9.68262C25.2448 9.97884 24.6989 10.127 24.0811 10.127C23.1501 10.127 22.3947 9.80322 21.8149 9.15576C21.2394 8.5083 20.9517 7.65137 20.9517 6.58496V6.50244ZM22.1323 6.64209C22.1323 7.40381 22.3079 8.0153 22.6592 8.47656C23.0146 8.93783 23.4886 9.16846 24.0811 9.16846C24.6777 9.16846 25.1517 8.93571 25.5029 8.47021C25.8542 8.00049 26.0298 7.34456 26.0298 6.50244C26.0298 5.74919 25.8499 5.13981 25.4902 4.67432C25.1348 4.20459 24.6608 3.96973 24.0684 3.96973C23.4886 3.96973 23.021 4.20036 22.6655 4.66162C22.3101 5.12288 22.1323 5.78304 22.1323 6.64209ZM31.9966 4.18555C31.8188 4.15592 31.6263 4.14111 31.4189 4.14111C30.6488 4.14111 30.1261 4.46908 29.8511 5.125V10H28.6768V3.13184H29.8193L29.8384 3.92529C30.2235 3.31169 30.7694 3.00488 31.4761 3.00488C31.7046 3.00488 31.8781 3.03451 31.9966 3.09375V4.18555ZM34.9927 1.46875V3.13184H36.2749V4.03955H34.9927V8.29883C34.9927 8.57389 35.0498 8.78125 35.1641 8.9209C35.2783 9.05632 35.473 9.12402 35.748 9.12402C35.8835 9.12402 36.0697 9.09863 36.3066 9.04785V10C35.9977 10.0846 35.6973 10.127 35.4053 10.127C34.8805 10.127 34.4849 9.96826 34.2183 9.65088C33.9517 9.3335 33.8184 8.88281 33.8184 8.29883V4.03955H32.5679V3.13184H33.8184V1.46875H34.9927ZM13.3491 23.2905H8.87402V28H7.46777V17.3359H14.0742V18.4932H8.87402V22.1406H13.3491V23.2905ZM17.0186 28H15.6636V20.0752H17.0186V28ZM15.5537 17.9731C15.5537 17.7534 15.6196 17.5679 15.7515 17.4165C15.8882 17.2651 16.0884 17.1895 16.3521 17.1895C16.6157 17.1895 16.8159 17.2651 16.9526 17.4165C17.0894 17.5679 17.1577 17.7534 17.1577 17.9731C17.1577 18.1929 17.0894 18.376 16.9526 18.5225C16.8159 18.6689 16.6157 18.7422 16.3521 18.7422C16.0884 18.7422 15.8882 18.6689 15.7515 18.5225C15.6196 18.376 15.5537 18.1929 15.5537 17.9731ZM20.666 28H19.311V16.75H20.666V28ZM26.1299 28.1465C25.0557 28.1465 24.1816 27.7949 23.5078 27.0918C22.834 26.3838 22.4971 25.439 22.4971 24.2573V24.0083C22.4971 23.2222 22.646 22.5215 22.9438 21.9062C23.2466 21.2861 23.6665 20.8027 24.2036 20.4561C24.7456 20.1045 25.3315 19.9287 25.9614 19.9287C26.9917 19.9287 27.7925 20.2681 28.3638 20.9468C28.9351 21.6255 29.2207 22.5972 29.2207 23.8618V24.4258H23.8521C23.8716 25.207 24.0986 25.8394 24.5332 26.3228C24.9727 26.8013 25.5293 27.0405 26.2031 27.0405C26.6816 27.0405 27.0869 26.9429 27.4189 26.7476C27.751 26.5522 28.0415 26.2935 28.2905 25.9712L29.1182 26.6157C28.4541 27.6362 27.458 28.1465 26.1299 28.1465ZM25.9614 21.042C25.4146 21.042 24.9556 21.2422 24.5845 21.6426C24.2134 22.0381 23.9839 22.5947 23.896 23.3125H27.8657V23.21C27.8267 22.5215 27.6411 21.9893 27.3091 21.6133C26.9771 21.2324 26.5278 21.042 25.9614 21.042Z" fill="black"/>
</svg>
